<svg width="12" height="12" viewBox="0 0 12 12" fill="none" xmlns="http://www.w3.org/2000/svg">
<g id="bxs:coupon">
<path id="Vector" d="M10.5 2.5H1.5C1.36739 2.5 1.24021 2.55268 1.14645 2.64645C1.05268 2.74021 1 2.86739 1 3V5H1.4465C1.9445 5 2.4065 5.3405 2.4865 5.832C2.51087 5.97552 2.50363 6.12263 2.46528 6.26306C2.42693 6.40349 2.3584 6.53386 2.26447 6.64508C2.17054 6.75629 2.05347 6.84567 1.92143 6.90697C1.7894 6.96827 1.64557 7.00002 1.5 7H1V9C1 9.13261 1.05268 9.25979 1.14645 9.35355C1.24021 9.44732 1.36739 9.5 1.5 9.5H10.5C10.6326 9.5 10.7598 9.44732 10.8536 9.35355C10.9473 9.25979 11 9.13261 11 9V7H10.5C10.3544 7.00002 10.2106 6.96827 10.0786 6.90697C9.94653 6.84567 9.82946 6.75629 9.73553 6.64508C9.6416 6.53386 9.57307 6.40349 9.53472 6.26306C9.49637 6.12263 9.48913 5.97552 9.5135 5.832C9.5935 5.3405 10.0555 5 10.5535 5H11V3C11 2.86739 10.9473 2.74021 10.8536 2.64645C10.7598 2.55268 10.6326 2.5 10.5 2.5ZM5.5 8.5H4.5V7.5H5.5V8.5ZM5.5 6.5H4.5V5.5H5.5V6.5ZM5.5 4.5H4.5V3.5H5.5V4.5Z" fill="#3688EF"/>
</g>
</svg>
