<svg width="16" height="16" viewBox="0 0 16 16" fill="none" xmlns="http://www.w3.org/2000/svg">
<g id="iconamoon:discount-fill">
<path id="Vector" fill-rule="evenodd" clip-rule="evenodd" d="M6.65884 2.5988C6.82767 2.41024 7.03437 2.25941 7.26543 2.15615C7.4965 2.05289 7.74675 1.99951 7.99984 1.99951C8.25294 1.99951 8.50318 2.05289 8.73425 2.15615C8.96532 2.25941 9.17201 2.41024 9.34084 2.5988L9.76084 3.068C9.82086 3.13514 9.89523 3.18791 9.97843 3.22239C10.0616 3.25688 10.1515 3.27219 10.2414 3.2672L10.8714 3.2324C11.1241 3.21852 11.3768 3.25806 11.6131 3.34844C11.8494 3.43881 12.064 3.57799 12.2429 3.75689C12.4218 3.9358 12.561 4.15041 12.6514 4.38673C12.7418 4.62305 12.7813 4.87577 12.7674 5.1284L12.7326 5.7584C12.7277 5.84822 12.7431 5.938 12.7776 6.02108C12.8121 6.10417 12.8648 6.17844 12.9318 6.2384L13.4016 6.6584C13.5903 6.82723 13.7412 7.03396 13.8445 7.26508C13.9479 7.49621 14.0013 7.74653 14.0013 7.9997C14.0013 8.25286 13.9479 8.50319 13.8445 8.73431C13.7412 8.96543 13.5903 9.17216 13.4016 9.341L12.9318 9.761C12.8647 9.82102 12.8119 9.89539 12.7774 9.97858C12.743 10.0618 12.7276 10.1517 12.7326 10.2416L12.7674 10.8716C12.7813 11.1242 12.7418 11.3769 12.6514 11.6133C12.561 11.8496 12.4218 12.0642 12.2429 12.2431C12.064 12.422 11.8494 12.5612 11.6131 12.6516C11.3768 12.7419 11.1241 12.7815 10.8714 12.7676L10.2414 12.7328C10.1516 12.7279 10.0618 12.7432 9.97876 12.7777C9.89567 12.8122 9.8214 12.8649 9.76144 12.932L9.34144 13.4018C9.17261 13.5904 8.96588 13.7414 8.73476 13.8447C8.50363 13.948 8.25331 14.0014 8.00014 14.0014C7.74697 14.0014 7.49665 13.948 7.26553 13.8447C7.0344 13.7414 6.82768 13.5904 6.65884 13.4018L6.23884 12.932C6.17882 12.8649 6.10445 12.8121 6.02126 12.7776C5.93806 12.7431 5.84817 12.7278 5.75824 12.7328L5.12824 12.7676C4.87561 12.7815 4.6229 12.7419 4.38658 12.6516C4.15026 12.5612 3.93565 12.422 3.75674 12.2431C3.57784 12.0642 3.43866 11.8496 3.34828 11.6133C3.25791 11.3769 3.21837 11.1242 3.23224 10.8716L3.26704 10.2416C3.27195 10.1518 3.25659 10.062 3.22211 9.97891C3.18763 9.89582 3.1349 9.82155 3.06784 9.7616L2.59864 9.3416C2.40999 9.17276 2.25907 8.96603 2.15575 8.73491C2.05243 8.50379 1.99902 8.25346 1.99902 8.0003C1.99902 7.74713 2.05243 7.49681 2.15575 7.26568C2.25907 7.03456 2.40999 6.82783 2.59864 6.659L3.06784 6.239C3.13499 6.17897 3.18776 6.10461 3.22224 6.02141C3.25673 5.93821 3.27204 5.84832 3.26704 5.7584L3.23224 5.1284C3.21837 4.87577 3.25791 4.62305 3.34828 4.38673C3.43866 4.15041 3.57784 3.9358 3.75674 3.75689C3.93565 3.57799 4.15026 3.43881 4.38658 3.34844C4.6229 3.25806 4.87561 3.21852 5.12824 3.2324L5.75824 3.2672C5.84807 3.2721 5.93784 3.25674 6.02093 3.22226C6.10401 3.18778 6.17829 3.13506 6.23824 3.068L6.65824 2.5988H6.65884ZM10.224 5.7758C10.3365 5.88831 10.3997 6.0409 10.3997 6.2C10.3997 6.35909 10.3365 6.51168 10.224 6.6242L6.62404 10.2242C6.51088 10.3335 6.35932 10.394 6.202 10.3926C6.04468 10.3912 5.8942 10.3281 5.78295 10.2169C5.67171 10.1056 5.60861 9.95515 5.60724 9.79784C5.60587 9.64052 5.66635 9.48896 5.77564 9.3758L9.37564 5.7758C9.48816 5.66331 9.64074 5.60012 9.79984 5.60012C9.95894 5.60012 10.1115 5.66331 10.224 5.7758ZM6.49984 5.6C6.26115 5.6 6.03223 5.69482 5.86345 5.8636C5.69466 6.03238 5.59984 6.2613 5.59984 6.5V6.506C5.59984 6.74469 5.69466 6.97361 5.86345 7.14239C6.03223 7.31118 6.26115 7.406 6.49984 7.406H6.50584C6.74454 7.406 6.97346 7.31118 7.14224 7.14239C7.31102 6.97361 7.40584 6.74469 7.40584 6.506V6.5C7.40584 6.2613 7.31102 6.03238 7.14224 5.8636C6.97346 5.69482 6.74454 5.6 6.50584 5.6H6.49984ZM9.49984 8.6C9.26115 8.6 9.03223 8.69482 8.86345 8.8636C8.69466 9.03238 8.59984 9.2613 8.59984 9.5V9.506C8.59984 9.74469 8.69466 9.97361 8.86345 10.1424C9.03223 10.3112 9.26115 10.406 9.49984 10.406H9.50584C9.74454 10.406 9.97346 10.3112 10.1422 10.1424C10.311 9.97361 10.4058 9.74469 10.4058 9.506V9.5C10.4058 9.2613 10.311 9.03238 10.1422 8.8636C9.97346 8.69482 9.74454 8.6 9.50584 8.6H9.49984Z" fill="#2C9854"/>
</g>
</svg>
