<svg width="20" height="20" viewBox="0 0 20 20" fill="none" xmlns="http://www.w3.org/2000/svg">
<g id="ios-lock">
<path id="Vector" d="M14.6875 7.50008H13.75V5.67586C13.75 3.61727 12.1094 1.90633 10.0508 1.87508C7.96484 1.84774 6.25 3.54696 6.25 5.62508V7.50008H5.3125C4.45312 7.50008 3.75 8.20321 3.75 9.06258V16.5626C3.75 17.422 4.45312 18.1251 5.3125 18.1251H14.6875C15.5469 18.1251 16.25 17.422 16.25 16.5626V9.06258C16.25 8.20321 15.5469 7.50008 14.6875 7.50008ZM10.5469 12.3751V15.0626C10.5469 15.3556 10.3203 15.6095 10.0273 15.6251C9.71484 15.6407 9.45312 15.3907 9.45312 15.0782V12.3751C9.00391 12.1563 8.70703 11.6798 8.75391 11.1368C8.80859 10.5313 9.30469 10.047 9.91016 10.004C10.6406 9.95321 11.25 10.5313 11.25 11.2501C11.25 11.7462 10.9648 12.172 10.5469 12.3751ZM12.6562 7.50008H7.34375V5.62508C7.34375 4.91805 7.62109 4.25399 8.125 3.75008C8.62891 3.24618 9.29297 2.96883 10 2.96883C10.707 2.96883 11.3711 3.24618 11.875 3.75008C12.3789 4.25399 12.6562 4.91805 12.6562 5.62508V7.50008Z" fill="#6A6A75"/>
</g>
</svg>
