<svg width="16" height="16" viewBox="0 0 16 16" fill="none" xmlns="http://www.w3.org/2000/svg">
<g id="ios-code">
<path id="Vector" d="M4.45937 5.625C4.425 5.6625 4.40625 5.70938 4.40625 5.75313C4.40625 5.79688 4.425 5.84688 4.45937 5.88125L4.87187 6.3125C4.90625 6.35 4.95625 6.37187 5.00625 6.37187C5.05625 6.37187 5.10625 6.35 5.14062 6.3125L8 3.31875L10.8594 6.3125C10.8937 6.35 10.9437 6.37187 10.9937 6.37187C11.0437 6.37187 11.0937 6.35 11.1281 6.3125L11.5406 5.88125C11.575 5.84375 11.5937 5.8 11.5937 5.75312C11.5937 5.70625 11.575 5.65937 11.5406 5.625L8.13437 2.05625C8.1 2.01875 8.05 1.99687 8 1.99687C7.95 1.99687 7.9 2.01875 7.86562 2.05625L4.45937 5.625ZM5.00625 9.625C4.95625 9.625 4.90625 9.64687 4.87187 9.68437L4.45937 10.1156C4.425 10.1531 4.40625 10.2 4.40625 10.2438C4.40625 10.2875 4.425 10.3375 4.45937 10.3719L7.86562 13.9406C7.9 13.9781 7.95 14 8 14C8.05 14 8.1 13.9781 8.13437 13.9406L11.5406 10.3719C11.575 10.3344 11.5937 10.2875 11.5937 10.2437C11.5937 10.1969 11.575 10.15 11.5406 10.1156L11.1281 9.68437C11.0937 9.64687 11.0437 9.625 10.9937 9.625C10.9437 9.625 10.8938 9.64687 10.8594 9.68437L8 12.6781L5.14062 9.68437C5.10625 9.64687 5.05625 9.625 5.00625 9.625Z" fill="#6A6A75"/>
</g>
</svg>
