<svg width="20" height="20" viewBox="0 0 20 20" fill="none" xmlns="http://www.w3.org/2000/svg">
<g id="ios-arrow-round-back">
<path id="Vector" d="M8.45312 6.39459C8.65234 6.5899 8.65234 6.91412 8.45703 7.11334L6.08594 9.49224H15.1211C15.3984 9.49224 15.625 9.71881 15.625 10.0001C15.625 10.2813 15.3984 10.5079 15.1211 10.5079H6.08594L8.46094 12.8868C8.65625 13.086 8.65234 13.4063 8.45703 13.6055C8.25781 13.8008 7.94141 13.8008 7.74219 13.6016L4.52344 10.3594C4.48047 10.3126 4.44531 10.2618 4.41797 10.1993C4.39062 10.1368 4.37891 10.0704 4.37891 10.004C4.37891 9.87115 4.42969 9.74615 4.52344 9.64849L7.74219 6.40631C7.93359 6.20318 8.25391 6.19928 8.45312 6.39459Z" fill="#3688EF"/>
</g>
</svg>
