<svg width="20" height="20" viewBox="0 0 20 20" fill="none" xmlns="http://www.w3.org/2000/svg">
<g id="ios-checkmark">
<path d="M0 10C0 4.47715 4.47715 0 10 0C15.5228 0 20 4.47715 20 10C20 15.5228 15.5228 20 10 20C4.47715 20 0 15.5228 0 10Z" fill="#3688EF"/>
<path id="Vector" d="M14.1641 7.53516L13.4766 6.82812C13.4492 6.79687 13.4063 6.78125 13.3672 6.78125C13.3242 6.78125 13.2852 6.79687 13.2578 6.82812L8.49219 11.6289L6.75781 9.89453C6.72656 9.86328 6.6875 9.84766 6.64844 9.84766C6.60937 9.84766 6.57031 9.86328 6.53906 9.89453L5.84375 10.5898C5.78125 10.6523 5.78125 10.75 5.84375 10.8125L8.03125 13C8.17188 13.1406 8.34375 13.2227 8.48828 13.2227C8.69531 13.2227 8.875 13.0703 8.94141 13.0078H8.94531L14.168 7.75781C14.2227 7.69141 14.2227 7.59375 14.1641 7.53516Z" fill="white"/>
</g>
</svg>
