<svg width="24" height="24" viewBox="0 0 24 24" fill="none" xmlns="http://www.w3.org/2000/svg">
<g id="ios-cloud-upload">
<path id="Vector" d="M20.4891 7.77188C20.1094 4.24688 17.1281 1.5 13.5 1.5C11.1 1.5 8.98594 2.7 7.71563 4.53281C7.32656 4.37344 6.9 4.28438 6.45469 4.28438C4.62187 4.28438 3.13594 5.89688 3.10781 7.725C1.2375 8.32031 0 10.1484 0 12.0703C0 14.4234 1.90781 16.5 4.26094 16.5H11.3906V9.84844L9.14531 12.0609C8.90625 12.2953 8.52187 12.2953 8.28281 12.0563C8.04844 11.8172 8.04844 11.4328 8.2875 11.1938L11.5688 7.95938C11.625 7.90781 11.6859 7.86094 11.7609 7.83281C11.8359 7.8 11.9156 7.78594 11.9953 7.78594C12.1547 7.78594 12.3047 7.84688 12.4219 7.95938L15.7031 11.1938C15.9422 11.4281 15.9469 11.8172 15.7078 12.0563C15.4734 12.2953 15.0844 12.3 14.8453 12.0609L12.6094 9.84844V16.5H19.7391C22.0922 16.5 24 14.4234 24 12.0703C24 9.975 22.4859 8.12813 20.4891 7.77188ZM11.3906 21.8906C11.3906 22.2281 11.6625 22.5 12 22.5C12.3375 22.5 12.6094 22.2281 12.6094 21.8906V16.5H11.3906V21.8906Z" fill="#B1B1B1"/>
</g>
</svg>
