<svg width="20" height="20" viewBox="0 0 20 20" fill="none" xmlns="http://www.w3.org/2000/svg">
<g id="md-more">
<path id="Vector" d="M11.5625 5.3125C11.5625 4.45305 10.8595 3.75 10 3.75C9.14055 3.75 8.4375 4.45305 8.4375 5.3125C8.4375 6.17195 9.14055 6.875 10 6.875C10.8595 6.875 11.5625 6.17195 11.5625 5.3125ZM11.5625 14.6875C11.5625 13.828 10.8595 13.125 10 13.125C9.14055 13.125 8.4375 13.828 8.4375 14.6875C8.4375 15.547 9.14055 16.25 10 16.25C10.8595 16.25 11.5625 15.547 11.5625 14.6875ZM11.5625 10C11.5625 9.14055 10.8595 8.4375 10 8.4375C9.14055 8.4375 8.4375 9.14055 8.4375 10C8.4375 10.8595 9.14055 11.5625 10 11.5625C10.8595 11.5625 11.5625 10.8595 11.5625 10Z" fill="#6A6A75"/>
</g>
</svg>
