<svg width="12" height="12" viewBox="0 0 12 12" fill="none" xmlns="http://www.w3.org/2000/svg">
<g id="mdi:present">
<path id="Vector" d="M4.53 0.964986C3.585 0.959986 2.665 1.86999 3.085 2.99999H1.5C1.23478 2.99999 0.98043 3.10534 0.792893 3.29288C0.605357 3.48042 0.5 3.73477 0.5 3.99999V4.99999C0.5 5.13259 0.552678 5.25977 0.646447 5.35354C0.740215 5.44731 0.867392 5.49999 1 5.49999H5.5V3.99999H6.5V5.49999H11C11.1326 5.49999 11.2598 5.44731 11.3536 5.35354C11.4473 5.25977 11.5 5.13259 11.5 4.99999V3.99999C11.5 3.73477 11.3946 3.48042 11.2071 3.29288C11.0196 3.10534 10.7652 2.99999 10.5 2.99999H8.915C9.5 1.36499 7.3 0.209986 6.285 1.61999L6 1.99999L5.715 1.60999C5.4 1.16499 4.965 0.969986 4.53 0.964986ZM4.5 1.99999C4.945 1.99999 5.17 2.53999 4.855 2.85499C4.54 3.16999 4 2.94499 4 2.49999C4 2.36738 4.05268 2.2402 4.14645 2.14643C4.24021 2.05266 4.36739 1.99999 4.5 1.99999ZM7.5 1.99999C7.945 1.99999 8.17 2.53999 7.855 2.85499C7.54 3.16999 7 2.94499 7 2.49999C7 2.36738 7.05268 2.2402 7.14645 2.14643C7.24021 2.05266 7.36739 1.99999 7.5 1.99999ZM1 5.99999V9.99999C1 10.2652 1.10536 10.5196 1.29289 10.7071C1.48043 10.8946 1.73478 11 2 11H10C10.2652 11 10.5196 10.8946 10.7071 10.7071C10.8946 10.5196 11 10.2652 11 9.99999V5.99999H6.5V9.99999H5.5V5.99999H1Z" fill="#FE5C5C"/>
</g>
</svg>
