<svg width="20" height="20" viewBox="0 0 20 20" fill="none" xmlns="http://www.w3.org/2000/svg">
<g id="ri:copper-coin-fill">
<path id="Vector" d="M10.0042 18.3359C5.40173 18.3359 1.6709 14.605 1.6709 10.0025C1.6709 5.40002 5.40173 1.66919 10.0042 1.66919C14.6067 1.66919 18.3376 5.40002 18.3376 10.0025C18.3376 14.605 14.6067 18.3359 10.0042 18.3359ZM10.0042 6.46669L6.4684 10.0025L10.0042 13.5384L13.5392 10.0025L10.0042 6.46669Z" fill="#FFA858"/>
<path id="Vector (Stroke)" fill-rule="evenodd" clip-rule="evenodd" d="M10.0041 5.28811L14.7174 10.0025L10.0041 14.7169L5.28964 10.0025L10.0041 5.28811ZM2.50399 10.0025C2.50399 14.1448 5.86172 17.5025 10.004 17.5025C14.1462 17.5025 17.504 14.1448 17.504 10.0025C17.504 5.86026 14.1462 2.50252 10.004 2.50252C5.86172 2.50252 2.50399 5.86026 2.50399 10.0025ZM6.46815 10.0025L10.004 6.46669L13.539 10.0025L10.004 13.5384L6.46815 10.0025ZM1.67065 10.0025C1.67065 14.605 5.40149 18.3359 10.004 18.3359C14.6065 18.3359 18.3373 14.605 18.3373 10.0025C18.3373 5.40002 14.6065 1.66919 10.004 1.66919C5.40149 1.66919 1.67065 5.40002 1.67065 10.0025Z" fill="#DF812B"/>
</g>
</svg>
